# xmcd
#
# Track frame offsets: 
#        150
#        13560
#        26288
#        41749
#        53102
#        65969
#        78389
#        87307
#        99519
#        111347
#        125236
#        147407
#
# Disc length: 2147 seconds
#
# Revision: 0
# Processed by: cddbd v1.5.2PL0 Copyright (c) Steve Scherf et al.
# Submitted via: ExactAudioCopy v1.3
#
DISCID=a808610c
DTITLE=The Cloghoppers - Mountain Sound
DYEAR=2009
DGENRE=Bluegrass
TTITLE0=big sciota
TTITLE1=Sioux city Sue
TTITLE2=Russian lullaby
TTITLE3=pony express
TTITLE4=wild wood flower
TTITLE5=blue moon of Kentucky
TTITLE6=1st of January
TTITLE7=shady grove
TTITLE8=sing that rock n roll
TTITLE9=Arkansas traveler-turkey in the straw
TTITLE10=yeecha medley
TTITLE11=moutain sound
EXTD=
EXTT0=
EXTT1=
EXTT2=
EXTT3=
EXTT4=
EXTT5=
EXTT6=
EXTT7=
EXTT8=
EXTT9=
EXTT10=
EXTT11=
PLAYORDER=
